<svg width="64" height="64" viewBox="0 0 64 64" fill="none" xmlns="http://www.w3.org/2000/svg">
<rect width="64" height="64" rx="20" fill="black"/>
<path d="M25.9806 36.8429C25.1935 37.4762 25.0596 38.6445 25.8311 39.2968C26.8795 40.1831 28.1124 40.8379 29.4493 41.2082C31.3773 41.7423 33.4244 41.6577 35.3018 40.9663C37.1792 40.275 38.7923 39.0118 39.9135 37.3548C41.0347 35.6979 41.6075 33.7307 41.5512 31.7309C41.4948 29.731 40.8121 27.7993 39.5994 26.2081C38.3867 24.6169 36.7051 23.4465 34.7917 22.862C32.8784 22.2774 30.8298 22.3082 28.9349 22.95C27.621 23.395 26.4269 24.1182 25.43 25.0621C24.6965 25.7568 24.8959 26.9158 25.7175 27.5037C26.5391 28.0917 27.6709 27.8712 28.4817 27.2684C28.9731 26.9029 29.5214 26.6141 30.1085 26.4153C31.2779 26.0192 32.542 26.0002 33.7227 26.3609C34.9035 26.7217 35.9412 27.4439 36.6896 28.4258C37.4379 29.4078 37.8592 30.5998 37.894 31.8339C37.9287 33.068 37.5753 34.2819 36.8834 35.3044C36.1915 36.3269 35.1961 37.1065 34.0375 37.5331C32.879 37.9597 31.6157 38.0119 30.426 37.6824C29.8286 37.5169 29.2649 37.2594 28.7537 36.9222C27.9103 36.366 26.7678 36.2095 25.9806 36.8429Z" fill="white"/>
<path d="M48.7394 20.6692C50.9284 19.1874 51.5293 16.1698 49.658 14.3027C47.1152 11.7655 44.0415 9.79244 40.6354 8.53874C35.723 6.73064 30.3669 6.51012 25.3225 7.90828C20.2781 9.30644 15.7998 12.2527 12.5191 16.3317C9.23842 20.4107 7.32087 25.4166 7.03683 30.6435C6.7528 35.8704 8.11661 41.0545 10.936 45.465C13.7553 49.8755 17.888 53.2897 22.7512 55.2263C27.6144 57.1628 32.9628 57.524 38.0422 56.2589C41.5641 55.3816 44.8335 53.7532 47.6363 51.5066C49.6989 49.8533 49.4285 46.7883 47.4129 45.078C45.3974 43.3678 42.3984 43.6989 40.1545 45.0962C38.7943 45.9431 37.3023 46.5781 35.7286 46.9701C32.5941 47.7508 29.2937 47.5279 26.2926 46.3329C23.2915 45.1378 20.7413 43.0309 19.0015 40.3092C17.2616 37.5875 16.42 34.3884 16.5953 31.1629C16.7706 27.9374 17.9539 24.8483 19.9784 22.3312C22.0029 19.814 24.7664 17.9959 27.8793 17.1331C30.9922 16.2703 34.2974 16.4064 37.3289 17.5221C38.8508 18.0823 40.2652 18.8753 41.5256 19.8646C43.6049 21.4968 46.5503 22.1509 48.7394 20.6692Z" fill="url(#paint0_linear_165_69)"/>
<defs>
<linearGradient id="paint0_linear_165_69" x1="32" y1="7" x2="32" y2="57" gradientUnits="userSpaceOnUse">
<stop stop-color="#00C6FF"/>
<stop offset="0.936248" stop-color="#0072FF"/>
</linearGradient>
</defs>
</svg>
