<svg width="48" height="48" viewBox="0 0 48 48" fill="none" xmlns="http://www.w3.org/2000/svg">
<rect width="48" height="48" rx="8" fill="#464762"/>
<path d="M36.5715 10.8572H25.7143C25.4 10.8572 25.1429 11.1143 25.1429 11.4286V22.2857C25.1429 22.6 25.4 22.8572 25.7143 22.8572H36.5715C36.8857 22.8572 37.1429 22.6 37.1429 22.2857V11.4286C37.1429 11.1143 36.8857 10.8572 36.5715 10.8572ZM36.5715 25.1429H25.7143C25.4 25.1429 25.1429 25.4 25.1429 25.7143V36.5715C25.1429 36.8857 25.4 37.1429 25.7143 37.1429H36.5715C36.8857 37.1429 37.1429 36.8857 37.1429 36.5715V25.7143C37.1429 25.4 36.8857 25.1429 36.5715 25.1429ZM22.2857 10.8572H11.4286C11.1143 10.8572 10.8572 11.1143 10.8572 11.4286V22.2857C10.8572 22.6 11.1143 22.8572 11.4286 22.8572H22.2857C22.6 22.8572 22.8572 22.6 22.8572 22.2857V11.4286C22.8572 11.1143 22.6 10.8572 22.2857 10.8572ZM22.2857 25.1429H11.4286C11.1143 25.1429 10.8572 25.4 10.8572 25.7143V36.5715C10.8572 36.8857 11.1143 37.1429 11.4286 37.1429H22.2857C22.6 37.1429 22.8572 36.8857 22.8572 36.5715V25.7143C22.8572 25.4 22.6 25.1429 22.2857 25.1429Z" fill="url(#paint0_linear_10_22)"/>
<defs>
<linearGradient id="paint0_linear_10_22" x1="24" y1="10.8572" x2="24" y2="37.1429" gradientUnits="userSpaceOnUse">
<stop stop-color="#00C6FF"/>
<stop offset="0.936248" stop-color="#0072FF"/>
</linearGradient>
</defs>
</svg>
